# xmcd CD database file
#
# Track frame offsets:
#	183
#	18675
#	33575
#	46428
#	57495
#	68398
#	88140
#	99830
#	110323
#	124353
#	134108
#	156628
#	174363
#	191715
#	204043
#	213403
#	225255
#	234985
#	246793
#	259760
#	279178
#	292000
#	308655
#	333578
#
# Disc length: 4577 seconds
#
# Revision: 4
# Processed by: cddbd v1.5.2PL0 Copyright (c) Steve Scherf et al.
# Submitted via: CdAid (MTCDDB.DLL V2003.12.21)
#
DISCID=5b11df18
DTITLE=Various Artist - Planete Blues - The Best of Blues-Rock
DYEAR=1960
DGENRE=Pop
TTITLE0=John Lee Hooker - Della Mae
TTITLE1=Big Mama Thorton - Hound Dog
TTITLE2=T-bone Walker - Stormy Monday Blues
TTITLE3=Bo Diddley - Diddy Wah Diddy
TTITLE4=Muddy Waters - Key To The Highway
TTITLE5=Howlin' Wolf - Wang Dang Doodle
TTITLE6=Willie Dixon and Menphis Slim - Crazy For My Baby
TTITLE7=Canned Heat - Dimple
TTITLE8=Bo Diddley - You Can't Judge A Book By The Cover
TTITLE9=John Mayal - I'm Your Witch Doctor
TTITLE10=Soony Boy Williamson - Boom Boom
TTITLE11=Muddy Waters - Manish Boy
TTITLE12=Howlin' Wolf - Red Rooster
TTITLE13=Johnny Winter - Good Morning Little Schoolgirl
TTITLE14=Canned Heat - Rollin' and Tumblin
TTITLE15=All Stars and Jeff Beck - Steelin
TTITLE16=Eric Clapton - Tribute To Elmore
TTITLE17=Yardbirds - I'm A Man
TTITLE18=Fleetwood Mac - Black Magic Woman
TTITLE19=Yardbirds - New York City
TTITLE20=Muddy Waters - Hoochie Coochie Man
TTITLE21=Koko Taylor - What Kind Of Man Is This
TTITLE22=Screamin' Jay Hawkings - Constipation Blues
TTITLE23=Chuck Berry - Worried Life Blues
EXTD=ID3G:  13 YEAR: 1960
EXTT0=
EXTT1=
EXTT2=
EXTT3=
EXTT4=
EXTT5=
EXTT6=
EXTT7=
EXTT8=
EXTT9=
EXTT10=
EXTT11=
EXTT12=
EXTT13=
EXTT14=
EXTT15=
EXTT16=
EXTT17=
EXTT18=
EXTT19=
EXTT20=
EXTT21=
EXTT22=
EXTT23=
PLAYORDER=
